@startuml クラス図
left to right direction

class 利用者 {
    -名前
    -住所
    -電話番号
}
class ホテル {
    -部屋
}
class 部屋 {
    -タイプ
    -価格
    -　キャンペーン価格
}
class 予約 {
    -チェックイン日
    -滞在期間
    -値段
}
利用者 --> 予約
ホテル "1" -- "*" 部屋
ホテル "1" *-- 利用者
利用者 --> 部屋:予約 >
利用者 --> ホテル:会員登録 >
@enduml
' ホテルに部屋が複数個
' ホテルには利用者が会員として登録
' 利用者は部屋を予約